<svg fill="none" height="100%" width="100%" viewBox="0 0 1080 1080" xmlns:xlink="http://www.w3.org/1999/xlink" xmlns="http://www.w3.org/2000/svg"><g id="i0"><g transform="translate(526.225,870.112)"><g transform="scale(1,1)"><animateTransform repeatCount="indefinite" type="scale" attributeName="transform" dur="3.003s" begin="0s" calcMode="spline" values="1 1; 1.48 1; 1 1" keyTimes="0; 0.5; 1" keySplines="0.672 0 0.324 1; 0.672 0 0.324 1" fill="freeze" /><g transform="translate(-128.106,-20.818)"><g id="i1" transform="matrix(1,0,0,1,128.106,20.818)"><path fill="#000072" d="M127.856,0C127.856,11.359,70.613,20.568,0,20.568C-70.613,20.568,-127.856,11.359,-127.856,0C-127.856,-11.359,-70.613,-20.568,0,-20.568C70.613,-20.568,127.856,-11.359,127.856,0Z" /></g></g></g></g></g><g id="i2"><g transform="translate(526.223,629.42)"><animateTransform repeatCount="indefinite" type="translate" attributeName="transform" dur="3.003s" begin="0s" calcMode="spline" values="526.223 629.42; 526.223 590.42; 526.223 629.42" keyTimes="0; 0.5; 1" keySplines="0.625 0 0.334 1; 0.625 0 0.334 1" fill="freeze" /><g transform="scale(1,1) translate(-170.703,-161.161)"><g id="i3"><g transform="translate(174.706,52.038)"><g transform="rotate(0)"><animateTransform repeatCount="indefinite" type="rotate" attributeName="transform" dur="3.003s" begin="0s" calcMode="spline" values="0; 0; -5; -5; 0" keyTimes="0; 0.244444; 0.411111; 0.788889; 1" keySplines="0 0 1 1; 0.704 0 0.404 1; 0.497 0 0.551 1; 0.744 0 0.341 1" fill="freeze" /><g transform="scale(1,1) translate(-259.144,-331.27)"><g id="i4"><g transform="translate(41.5,174.999)"><g transform="rotate(0)"><animateTransform repeatCount="indefinite" type="rotate" attributeName="transform" dur="3.003s" begin="0s" calcMode="spline" values="0; 0; -10; -10; 0" keyTimes="0; 0.244444; 0.411111; 0.788889; 1" keySplines="0 0 1 1; 0.678 0 0.383 1; 0.485 0 0.48 1; 0.743 0 0.333 1" fill="freeze" /><g transform="scale(1,1) translate(-24.53,-119.721)"><g id="i5" transform="matrix(1,0,0,1,24.531,59.46)"><path fill="#7a4923" d="M-18.921,55.028C-18.921,55.028,-10.507,-24.902,-10.507,-24.902C-9.427,-35.162,-4.592,-44.659,3.069,-51.569C6.903,-55.028,13.034,-52.5,13.316,-47.345C13.316,-47.345,18.921,55.028,18.921,55.028C18.921,55.028,-18.921,55.028,-18.921,55.028Z" /></g></g></g></g></g></g></g></g></g></g></g></g><g id="i2"><g transform="translate(526.223,629.42)"><animateTransform repeatCount="indefinite" type="translate" attributeName="transform" dur="3.003s" begin="0s" calcMode="spline" values="526.223 629.42; 526.223 590.42; 526.223 629.42" keyTimes="0; 0.5; 1" keySplines="0.625 0 0.334 1; 0.625 0 0.334 1" fill="freeze" /><g transform="scale(1,1) translate(-170.703,-161.161)"><g id="i3"><g transform="translate(174.706,52.038)"><g transform="rotate(0)"><animateTransform repeatCount="indefinite" type="rotate" attributeName="transform" dur="3.003s" begin="0s" calcMode="spline" values="0; 0; -5; -5; 0" keyTimes="0; 0.244444; 0.411111; 0.788889; 1" keySplines="0 0 1 1; 0.704 0 0.404 1; 0.497 0 0.551 1; 0.744 0 0.341 1" fill="freeze" /><g transform="scale(1,1) translate(-259.144,-331.27)"><g id="i6"><g transform="translate(468.786,174.999)"><g transform="rotate(0)"><animateTransform repeatCount="indefinite" type="rotate" attributeName="transform" dur="3.003s" begin="0s" calcMode="spline" values="0; 0; -10; -10; 0" keyTimes="0; 0.244444; 0.411111; 0.788889; 1" keySplines="0 0 1 1; 0.678 0 0.383 1; 0.485 0 0.48 1; 0.743 0 0.333 1" fill="freeze" /><g transform="scale(1,1) translate(-24.474,-119.722)"><g id="i5" transform="matrix(1,0,0,1,24.473,59.461)"><path fill="#7a4923" d="M18.921,55.028C18.921,55.028,10.507,-24.902,10.507,-24.902C9.427,-35.162,4.592,-44.659,-3.069,-51.569C-6.903,-55.028,-13.034,-52.5,-13.316,-47.345C-13.316,-47.345,-18.921,55.028,-18.921,55.028C-18.921,55.028,18.921,55.028,18.921,55.028Z" /></g></g></g></g></g></g></g></g></g></g></g></g><g id="i2"><g transform="translate(526.223,629.42)"><animateTransform repeatCount="indefinite" type="translate" attributeName="transform" dur="3.003s" begin="0s" calcMode="spline" values="526.223 629.42; 526.223 590.42; 526.223 629.42" keyTimes="0; 0.5; 1" keySplines="0.625 0 0.334 1; 0.625 0 0.334 1" fill="freeze" /><g transform="scale(1,1) translate(-170.703,-161.161)"><g id="i7"><g transform="translate(297.933,44.121)"><g transform="rotate(0)"><animateTransform repeatCount="indefinite" type="rotate" attributeName="transform" dur="3.003s" begin="0s" calcMode="spline" values="0; 0; -68; -47; -68; -47; -68; 0; 0" keyTimes="0; 0.355555; 0.411111; 0.466666; 0.522222; 0.577778; 0.633333; 0.722222; 1" keySplines="0 0 1 1; 0.694 0 0.314 1; 0.694 0 0.314 1; 0.694 0 0.314 1; 0.694 0 0.314 1; 0.694 0 0.314 1; 0.559 0 0.446 1; 0 0 1 1" fill="freeze" /><g transform="scale(1,1) translate(-0.336,-0.323)"><g id="i5" transform="matrix(1,0,0,1,76.953,85.9)"><path d="M-66.106,25.403C-66.106,25.403,-22.495,70.527,25.271,76.878C51.343,80.344,71.385,54.183,61.706,29.727C49.306,-1.604,12.034,-40.162,-71.385,-80.344C-71.385,-80.344,-66.106,25.403,-66.106,25.403Z" fill="#d3c18f"><animate repeatCount="indefinite" attributeName="d" dur="3.003s" begin="0s" calcMode="spline" values="M-66.106,25.403C-66.106,25.403,-22.495,70.527,25.271,76.878C51.343,80.344,71.385,54.183,61.706,29.727C49.306,-1.604,12.034,-40.162,-71.385,-80.344C-71.385,-80.344,-66.106,25.403,-66.106,25.403Z; M-138.922,-34.695C-138.922,-34.695,-22.495,70.527,25.271,76.878C51.343,80.344,71.385,54.183,61.706,29.727C49.306,-1.604,10.072,-43.684,-73.347,-83.866C-73.347,-83.866,-138.922,-34.695,-138.922,-34.695Z; M-138.922,-34.695C-138.922,-34.695,-22.495,70.527,25.271,76.878C51.343,80.344,71.385,54.183,61.706,29.727C49.306,-1.604,10.072,-43.684,-73.347,-83.866C-73.347,-83.866,-138.922,-34.695,-138.922,-34.695Z; M-66.106,25.403C-66.106,25.403,-22.495,70.527,25.271,76.878C51.343,80.344,71.385,54.183,61.706,29.727C49.306,-1.604,12.034,-40.162,-71.385,-80.344C-71.385,-80.344,-66.106,25.403,-66.106,25.403Z" keyTimes="0; 0.411111; 0.788889; 1" keySplines="0.333 0 0.667 1; 0.333 0 0.667 1; 0.333 0 0.667 1" fill="freeze" /></path></g></g></g></g></g></g></g></g><g id="i2"><g transform="translate(526.223,629.42)"><animateTransform repeatCount="indefinite" type="translate" attributeName="transform" dur="3.003s" begin="0s" calcMode="spline" values="526.223 629.42; 526.223 590.42; 526.223 629.42" keyTimes="0; 0.5; 1" keySplines="0.625 0 0.334 1; 0.625 0 0.334 1" fill="freeze" /><g transform="scale(1,1) translate(-170.703,-161.161)"><g id="i8"><g transform="translate(22.691,68.343)"><g transform="rotate(0)"><animateTransform repeatCount="indefinite" type="rotate" attributeName="transform" dur="3.003s" begin="0s" calcMode="spline" values="0; 0; 11; 11; 0" keyTimes="0; 0.244444; 0.411111; 0.788889; 1" keySplines="0 0 1 1; 0.636 0 0.425 1; 0.528 0 0.495 1; 0.681 0 0.259 1" fill="freeze" /><g transform="scale(1,1) translate(-107.83,-19.565)"><g id="i5" transform="matrix(1,0,0,1,66.435,99.891)"><path fill="#d3c18f" d="M62.161,9.044C62.161,9.044,32.601,64.4,-11.591,83.61C-35.712,94.095,-62.161,74.434,-59.562,48.261C-56.231,14.73,-22.816,-41.928,51.23,-102.095C51.23,-102.095,62.161,9.044,62.161,9.044Z" /></g></g></g></g></g></g></g></g><g id="i2"><g transform="translate(526.223,629.42)"><animateTransform repeatCount="indefinite" type="translate" attributeName="transform" dur="3.003s" begin="0s" calcMode="spline" values="526.223 629.42; 526.223 590.42; 526.223 629.42" keyTimes="0; 0.5; 1" keySplines="0.625 0 0.334 1; 0.625 0 0.334 1" fill="freeze" /><g transform="scale(1,1) translate(-170.703,-161.161)"><g id="i9" transform="matrix(1,0,0,1,170.686,162.699)"><path fill="#646464" d="M151.853,1.563C134.494,60.193,104.59,98.926,73.247,124.499C30.511,159.374,-30.485,159.374,-73.221,124.499C-104.55,98.926,-134.467,60.193,-151.812,1.563C-163.481,-37.864,-160.878,-67.322,-150.164,-89.338C-116.101,-159.361,0.02,-154.011,0.02,-154.011C0.02,-154.011,116.338,-159.374,150.296,-89.168C160.931,-67.165,163.482,-37.759,151.853,1.563Z" /></g><g id="i10" transform="matrix(1,0,0,1,170.653,185.239)"><path fill="#d7bc6e" d="M137.115,19.206C64.316,-8.601,-6.239,-7.154,-52.615,-1.044C-103.018,5.598,-136.582,19.033,-136.915,19.168C-136.915,19.168,-140.849,9.469,-140.849,9.469C-139.449,8.901,-105.959,-4.529,-54.321,-11.373C-6.667,-17.692,65.875,-19.206,140.849,9.431C140.849,9.431,137.115,19.206,137.115,19.206Z" /></g><g id="i5" transform="matrix(1,0,0,1,170.71,192.548)"><path fill="#d7bc6e" d="M0.005,60.007C59.828,60.007,79.176,4.054,85.36,-28.2C87.825,-41.057,79.1,-53.339,66.16,-55.324C35.625,-60.008,0,-59.124,0,-59.124C0,-59.124,-35.625,-60.008,-66.16,-55.324C-79.1,-53.339,-87.824,-41.057,-85.359,-28.2C-79.176,4.054,-59.827,60.007,-0.005,60.007" /></g><g id="i1" transform="matrix(1,0,0,1,170.71,192.617)"><path fill="#ffffff" d="M0.006,65.171C0.006,65.171,0.006,54.706,0.006,54.706C55.796,54.706,74.21,2.102,80.222,-29.255C81.139,-34.044,80.097,-38.874,77.286,-42.855C74.46,-46.86,70.227,-49.475,65.366,-50.221C35.662,-54.778,0.479,-53.973,0.131,-53.963C0.044,-53.96,-0.043,-53.96,-0.129,-53.963C-0.481,-53.973,-35.665,-54.777,-65.367,-50.221C-70.228,-49.475,-74.461,-46.86,-77.287,-42.855C-80.098,-38.874,-81.139,-34.044,-80.221,-29.255C-74.209,2.102,-55.794,54.706,-0.005,54.706C-0.005,54.706,-0.005,65.171,-0.005,65.171C-28.014,65.171,-50.565,53.676,-67.031,31.004C-80.834,11.999,-87.412,-11.184,-90.498,-27.284C-91.957,-34.891,-90.301,-42.564,-85.838,-48.889C-81.356,-55.238,-74.65,-59.384,-66.954,-60.565C-36.929,-65.171,-2.749,-64.491,0.001,-64.427C2.754,-64.491,36.931,-65.17,66.954,-60.565C74.65,-59.384,81.355,-55.238,85.837,-48.889C90.301,-42.564,91.956,-34.891,90.497,-27.284C87.412,-11.184,80.836,11.998,67.032,31.004C50.567,53.676,28.015,65.171,0.006,65.171Z" /></g></g></g></g><g id="i2"><g transform="translate(526.223,629.42)"><animateTransform repeatCount="indefinite" type="translate" attributeName="transform" dur="3.003s" begin="0s" calcMode="spline" values="526.223 629.42; 526.223 590.42; 526.223 629.42" keyTimes="0; 0.5; 1" keySplines="0.625 0 0.334 1; 0.625 0 0.334 1" fill="freeze" /><g transform="scale(1,1) translate(-170.703,-161.161)"><g id="i3"><g transform="translate(174.706,52.038)"><g transform="rotate(0)"><animateTransform repeatCount="indefinite" type="rotate" attributeName="transform" dur="3.003s" begin="0s" calcMode="spline" values="0; 0; -5; -5; 0" keyTimes="0; 0.244444; 0.411111; 0.788889; 1" keySplines="0 0 1 1; 0.704 0 0.404 1; 0.497 0 0.551 1; 0.744 0 0.341 1" fill="freeze" /><g transform="scale(1,1) translate(-259.144,-331.27)"><g transform="matrix(0.999,-0.035,0.035,0.999,266.564,366.296)" id="i11"><g id="i12" transform="matrix(1,0,0,1,-5,-4.25)"><path d="M0,-23.25C72.349,-23.25,142.656,-31.446,142.656,-18.605C142.656,-5.764,98.558,28.708,-13.736,29.775C-86.082,30.463,-143.207,-10.099,-143.207,-22.94C-143.207,-35.781,-72.349,-23.25,0,-23.25Z" fill="#000000"><animate repeatCount="indefinite" attributeName="d" dur="3.003s" begin="0s" calcMode="spline" values="M0,-23.25C72.349,-23.25,142.656,-31.446,142.656,-18.605C142.656,-5.764,98.558,28.708,-13.736,29.775C-86.082,30.463,-143.207,-10.099,-143.207,-22.94C-143.207,-35.781,-72.349,-23.25,0,-23.25Z; M0,-23.25C72.349,-23.25,142.656,-31.446,142.656,-18.605C142.656,-5.764,98.558,28.708,-13.736,29.775C-86.082,30.463,-143.207,-10.099,-143.207,-22.94C-143.207,-35.781,-72.349,-23.25,0,-23.25Z; M0,-23.25C72.349,-23.25,130.206,-24.41,130.206,-11.569C130.206,1.272,98.558,28.708,-13.736,29.775C-86.082,30.463,-143.207,-10.099,-143.207,-22.94C-143.207,-35.781,-72.349,-23.25,0,-23.25Z; M0,-23.25C72.349,-23.25,130.206,-24.41,130.206,-11.569C130.206,1.272,98.558,28.708,-13.736,29.775C-86.082,30.463,-143.207,-10.099,-143.207,-22.94C-143.207,-35.781,-72.349,-23.25,0,-23.25Z; M0,-23.25C72.349,-23.25,142.656,-31.446,142.656,-18.605C142.656,-5.764,98.558,28.708,-13.736,29.775C-86.082,30.463,-143.207,-10.099,-143.207,-22.94C-143.207,-35.781,-72.349,-23.25,0,-23.25Z" keyTimes="0; 0.244444; 0.411111; 0.788889; 1" keySplines="0 0 1 1; 0.63 0 0.275 1; 0.333 0 0.275 1; 0.333 0 0.667 1" fill="freeze" /></path></g></g></g></g></g></g></g></g></g><g id="i2"><g transform="translate(526.223,629.42)"><animateTransform repeatCount="indefinite" type="translate" attributeName="transform" dur="3.003s" begin="0s" calcMode="spline" values="526.223 629.42; 526.223 590.42; 526.223 629.42" keyTimes="0; 0.5; 1" keySplines="0.625 0 0.334 1; 0.625 0 0.334 1" fill="freeze" /><g transform="scale(1,1) translate(-170.703,-161.161)"><g id="i3"><g transform="translate(174.706,52.038)"><g transform="rotate(0)"><animateTransform repeatCount="indefinite" type="rotate" attributeName="transform" dur="3.003s" begin="0s" calcMode="spline" values="0; 0; -5; -5; 0" keyTimes="0; 0.244444; 0.411111; 0.788889; 1" keySplines="0 0 1 1; 0.704 0 0.404 1; 0.497 0 0.551 1; 0.744 0 0.341 1" fill="freeze" /><g transform="scale(1,1) translate(-259.144,-331.27)"><g id="i13" transform="matrix(1,0,0,1,42.556,224.831)"><path fill="#b9826b" d="M25.293,72.473C18.26,73.542,11.329,73.939,4.862,73.926C-16.108,73.883,-33.382,57.551,-35.08,36.65C-37.464,7.315,-36.599,-17.559,-35.081,-35.376C-33.47,-54.288,-18.896,-69.513,-0.076,-71.978C5.398,-72.694,10.455,-73.156,14.695,-73.452C21.656,-73.939,27.689,-68.69,28.198,-61.73C28.198,-61.73,36.941,57.866,36.941,57.866C37.464,65.026,32.391,71.394,25.293,72.473Z" /></g><g id="i14" transform="matrix(1,0,0,1,467.731,224.831)"><path fill="#b9826b" d="M-25.293,72.473C-18.26,73.542,-11.329,73.939,-4.862,73.926C16.108,73.883,33.382,57.551,35.08,36.65C37.464,7.315,36.599,-17.559,35.081,-35.376C33.47,-54.288,18.896,-69.513,0.076,-71.978C-5.398,-72.694,-10.455,-73.156,-14.695,-73.452C-21.656,-73.939,-27.689,-68.69,-28.198,-61.73C-28.198,-61.73,-36.941,57.866,-36.941,57.866C-37.464,65.026,-32.391,71.394,-25.293,72.473Z" /></g><g id="i15" transform="matrix(1,0,0,1,255.143,26.4)"><path fill="#b9826b" d="M0,14.191C40.318,14.191,71.946,20.918,71.946,20.918C71.946,20.918,62.551,-2.07,62.551,-2.07C59.925,-8.495,54.514,-13.397,47.833,-15.276C38.432,-17.921,22.759,-20.918,0,-20.918C-22.759,-20.918,-38.432,-17.921,-47.833,-15.276C-54.514,-13.397,-59.925,-8.495,-62.551,-2.07C-62.551,-2.07,-71.946,20.918,-71.946,20.918C-71.946,20.918,-40.318,14.191,0,14.191Z" /></g><g id="i16" transform="matrix(1,0,0,1,255.517,199.2)"><path fill="#d3c18f" d="M-0.374,177.857C218.642,177.857,210.326,23.967,210.326,23.967C210.326,-177.856,-0.374,-166.924,-0.374,-166.924C-0.374,-166.924,-211.074,-177.856,-211.074,23.967C-211.074,23.967,-218.642,177.857,-0.374,177.857Z" /></g><g id="i9" transform="matrix(1,0,0,1,255.143,214.946)"><path fill="#7a4923" d="M-30.48,90.777C-10.358,86.816,10.357,86.816,30.48,90.777C183.009,120.803,180.329,19.462,180.329,19.462C180.329,-120.804,0,-112.552,0,-112.552C0,-112.552,-180.33,-120.804,-180.33,19.462C-180.33,19.462,-183.01,120.803,-30.48,90.777Z" /></g><g id="i10" transform="matrix(1,0,0,1,255.143,276.16)"><path fill="#b9826b" d="M179.275,-59.59C174.803,-34.243,151.483,24.604,30.48,0.785C10.358,-3.176,-10.358,-3.176,-30.48,0.785C-151.483,24.604,-174.803,-34.243,-179.275,-59.59C-179.957,-53.924,-180.33,-47.99,-180.33,-41.75C-180.33,-41.75,-183.009,59.59,-30.48,29.564C-10.358,25.603,10.358,25.603,30.48,29.564C183.009,59.59,180.33,-41.75,180.33,-41.75C180.33,-47.99,179.957,-53.924,179.275,-59.59Z" /></g><g id="i17" transform="matrix(1,0,0,1,255.144,182.09)"><path fill="#ffffff" d="M-175.607,62.66C-175.607,-73.933,0,-65.898,0,-65.898C0,-65.898,175.606,-73.933,175.606,62.66C175.606,62.66,175.901,74.054,170.474,87.948C180.778,69.71,180.329,52.32,180.329,52.32C180.329,-87.947,0,-79.697,0,-79.697C0,-79.697,-180.33,-87.947,-180.33,52.32C-180.33,52.32,-180.778,69.71,-170.475,87.948C-175.901,74.054,-175.607,62.66,-175.607,62.66Z" /></g></g></g></g></g></g></g></g><g id="i2"><g transform="translate(526.223,629.42)"><animateTransform repeatCount="indefinite" type="translate" attributeName="transform" dur="3.003s" begin="0s" calcMode="spline" values="526.223 629.42; 526.223 590.42; 526.223 629.42" keyTimes="0; 0.5; 1" keySplines="0.625 0 0.334 1; 0.625 0 0.334 1" fill="freeze" /><g transform="scale(1,1) translate(-170.703,-161.161)"><g id="i3"><g transform="translate(174.706,52.038)"><g transform="rotate(0)"><animateTransform repeatCount="indefinite" type="rotate" attributeName="transform" dur="3.003s" begin="0s" calcMode="spline" values="0; 0; -5; -5; 0" keyTimes="0; 0.244444; 0.411111; 0.788889; 1" keySplines="0 0 1 1; 0.704 0 0.404 1; 0.497 0 0.551 1; 0.744 0 0.341 1" fill="freeze" /><g transform="scale(1,1) translate(-259.144,-331.27)"><g transform="matrix(1,0,0,1,136.277,200.848)" id="i18"><g id="i1" transform="matrix(1,0,0,1,40.174,18.594)"><path d="M-24.883,15.843C-25.327,14.995,-25.908,11.283,-25.954,9.522C-25.72,8.845,-25.727,5.291,-24.207,0.876C-21.032,-8.343,-15.879,-15.8,-2.251,-16.96C15.468,-18.468,23.093,-5.843,25.017,-0.121C26.506,4.307,27.093,7.908,26.271,13.891C25.979,16.014,23.593,22.282,21.76,24.27C15.247,31.335,10.218,34.533,1.123,34.524C-9.661,34.513,-15.199,29.66,-18.432,26.767C-21.907,23.657,-23.407,18.657,-24.883,15.843Z" fill="#d7bc6e"><animate repeatCount="indefinite" attributeName="d" dur="3.003s" begin="0s" calcMode="spline" values="M-24.883,15.843C-25.327,14.995,-25.908,11.283,-25.954,9.522C-25.72,8.845,-25.727,5.291,-24.207,0.876C-21.032,-8.343,-15.879,-15.8,-2.251,-16.96C15.468,-18.468,23.093,-5.843,25.017,-0.121C26.506,4.307,27.093,7.908,26.271,13.891C25.979,16.014,23.593,22.282,21.76,24.27C15.247,31.335,10.218,34.533,1.123,34.524C-9.661,34.513,-15.199,29.66,-18.432,26.767C-21.907,23.657,-23.407,18.657,-24.883,15.843Z; M-30.383,18.343C-31.34,18.343,-32.314,18.18,-33.266,17.835C-37.656,16.242,-39.924,11.391,-38.332,7.001C-33.706,-5.752,-18.87,-15.605,-2.251,-16.96C14.755,-18.344,29.271,-10.565,37.642,4.379C39.924,8.455,38.471,13.609,34.396,15.891C30.323,18.172,25.169,16.722,22.885,12.645C16.043,0.428,5.058,-0.591,-0.877,-0.101C-11.625,0.775,-20.434,7.26,-22.432,12.767C-23.679,16.205,-26.924,18.343,-30.383,18.343Z; M-30.383,18.343C-31.34,18.343,-32.314,18.18,-33.266,17.835C-37.656,16.242,-39.924,11.391,-38.332,7.001C-33.706,-5.752,-18.87,-15.605,-2.251,-16.96C14.755,-18.344,29.271,-10.565,37.642,4.379C39.924,8.455,38.471,13.609,34.396,15.891C30.323,18.172,25.169,16.722,22.885,12.645C16.043,0.428,5.058,-0.591,-0.877,-0.101C-11.625,0.775,-20.434,7.26,-22.432,12.767C-23.679,16.205,-26.924,18.343,-30.383,18.343Z; M-24.883,15.843C-25.327,14.995,-25.908,11.283,-25.954,9.522C-25.72,8.845,-25.727,5.291,-24.207,0.876C-21.032,-8.343,-15.879,-15.8,-2.251,-16.96C15.468,-18.468,23.093,-5.843,25.017,-0.121C26.506,4.307,27.093,7.908,26.271,13.891C25.979,16.014,23.593,22.282,21.76,24.27C15.247,31.335,10.218,34.533,1.123,34.524C-9.661,34.513,-15.199,29.66,-18.432,26.767C-21.907,23.657,-23.407,18.657,-24.883,15.843Z" keyTimes="0; 0.333333; 0.788889; 1" keySplines="0.333 0 0.667 1; 0.333 0 0.667 1; 0.333 0 0.667 1" fill="freeze" /></path></g></g></g></g></g></g></g></g></g><g id="i2"><g transform="translate(526.223,629.42)"><animateTransform repeatCount="indefinite" type="translate" attributeName="transform" dur="3.003s" begin="0s" calcMode="spline" values="526.223 629.42; 526.223 590.42; 526.223 629.42" keyTimes="0; 0.5; 1" keySplines="0.625 0 0.334 1; 0.625 0 0.334 1" fill="freeze" /><g transform="scale(1,1) translate(-170.703,-161.161)"><g id="i3"><g transform="translate(174.706,52.038)"><g transform="rotate(0)"><animateTransform repeatCount="indefinite" type="rotate" attributeName="transform" dur="3.003s" begin="0s" calcMode="spline" values="0; 0; -5; -5; 0" keyTimes="0; 0.244444; 0.411111; 0.788889; 1" keySplines="0 0 1 1; 0.704 0 0.404 1; 0.497 0 0.551 1; 0.744 0 0.341 1" fill="freeze" /><g transform="scale(1,1) translate(-259.144,-331.27)"><g transform="matrix(1,0,0,1,295.711,200.848)" id="i19"><g id="i1" transform="matrix(1,0,0,1,40.174,18.594)"><path d="M-24.883,15.843C-25.327,14.995,-25.908,11.283,-25.954,9.522C-25.72,8.845,-25.727,5.291,-24.207,0.876C-21.032,-8.343,-15.879,-15.8,-2.251,-16.96C15.468,-18.468,23.093,-5.843,25.017,-0.121C26.506,4.307,27.093,7.908,26.271,13.891C25.979,16.014,23.593,22.282,21.76,24.27C15.247,31.335,10.218,34.533,1.123,34.524C-9.661,34.513,-15.199,29.66,-18.432,26.767C-21.907,23.657,-23.407,18.657,-24.883,15.843Z" fill="#d7bc6e"><animate repeatCount="indefinite" attributeName="d" dur="3.003s" begin="0s" calcMode="spline" values="M-24.883,15.843C-25.327,14.995,-25.908,11.283,-25.954,9.522C-25.72,8.845,-25.727,5.291,-24.207,0.876C-21.032,-8.343,-15.879,-15.8,-2.251,-16.96C15.468,-18.468,23.093,-5.843,25.017,-0.121C26.506,4.307,27.093,7.908,26.271,13.891C25.979,16.014,23.593,22.282,21.76,24.27C15.247,31.335,10.218,34.533,1.123,34.524C-9.661,34.513,-15.199,29.66,-18.432,26.767C-21.907,23.657,-23.407,18.657,-24.883,15.843Z; M-30.383,18.343C-31.34,18.343,-32.314,18.18,-33.266,17.835C-37.656,16.242,-39.924,11.391,-38.332,7.001C-33.706,-5.752,-18.87,-15.605,-2.251,-16.96C14.755,-18.344,29.271,-10.565,37.642,4.379C39.924,8.455,38.471,13.609,34.396,15.891C30.323,18.172,25.169,16.722,22.885,12.645C16.043,0.428,5.058,-0.591,-0.877,-0.101C-11.625,0.775,-20.434,7.26,-22.432,12.767C-23.679,16.205,-26.924,18.343,-30.383,18.343Z; M-30.383,18.343C-31.34,18.343,-32.314,18.18,-33.266,17.835C-37.656,16.242,-39.924,11.391,-38.332,7.001C-33.706,-5.752,-18.87,-15.605,-2.251,-16.96C14.755,-18.344,29.271,-10.565,37.642,4.379C39.924,8.455,38.471,13.609,34.396,15.891C30.323,18.172,25.169,16.722,22.885,12.645C16.043,0.428,5.058,-0.591,-0.877,-0.101C-11.625,0.775,-20.434,7.26,-22.432,12.767C-23.679,16.205,-26.924,18.343,-30.383,18.343Z; M-24.883,15.843C-25.327,14.995,-25.908,11.283,-25.954,9.522C-25.72,8.845,-25.727,5.291,-24.207,0.876C-21.032,-8.343,-15.879,-15.8,-2.251,-16.96C15.468,-18.468,23.093,-5.843,25.017,-0.121C26.506,4.307,27.093,7.908,26.271,13.891C25.979,16.014,23.593,22.282,21.76,24.27C15.247,31.335,10.218,34.533,1.123,34.524C-9.661,34.513,-15.199,29.66,-18.432,26.767C-21.907,23.657,-23.407,18.657,-24.883,15.843Z" keyTimes="0; 0.333333; 0.788889; 1" keySplines="0.333 0 0.667 1; 0.333 0 0.667 1; 0.333 0 0.667 1" fill="freeze" /></path></g></g></g></g></g></g></g></g></g></svg>